<?xml version="1.0" encoding="UTF-8"?>
<svg width="24px" height="24px" viewBox="0 0 24 24" version="1.1" xmlns="http://www.w3.org/2000/svg" xmlns:xlink="http://www.w3.org/1999/xlink">
    <title>Icon/Social/Facebook</title>
    <g id="Symbols" stroke="none" stroke-width="1" fill="none" fill-rule="evenodd">
        <g id="Footer/Desktop" transform="translate(-1165.000000, -40.000000)" fill="#FFFFFF" fill-rule="nonzero">
            <g id="Icon/Social/Facebook" transform="translate(1165.000000, 40.000000)">
                <path d="M24,1.32321429 L24,22.6714286 C24,23.4053571 23.4053571,23.9946429 22.6767857,23.9946429 L16.5589286,23.9946429 L16.5589286,14.7053571 L19.6767857,14.7053571 L20.1428571,11.0839286 L16.5535714,11.0839286 L16.5535714,8.76964286 C16.5535714,7.71964286 16.8428571,7.00714286 18.3482143,7.00714286 L20.2660714,7.00714286 L20.2660714,3.76607143 C19.9339286,3.72321429 18.7982143,3.62142857 17.4696429,3.62142857 C14.7053571,3.62142857 12.8089286,5.30892857 12.8089286,8.41071429 L12.8089286,11.0839286 L9.68035714,11.0839286 L9.68035714,14.7053571 L12.8089286,14.7053571 L12.8089286,24 L1.32321429,24 C0.594642857,24 0,23.4053571 0,22.6767857 L0,1.32321429 C0,0.594642857 0.594642857,0 1.32321429,0 L22.6714286,0 C23.4053571,0 24,0.594642857 24,1.32321429 Z" id="Path"></path>
            </g>
        </g>
    </g>
</svg>