<?xml version="1.0" encoding="UTF-8"?>
<svg width="24px" height="24px" viewBox="0 0 24 24" version="1.1" xmlns="http://www.w3.org/2000/svg" xmlns:xlink="http://www.w3.org/1999/xlink">
    <title>Icon/Social/Spotify</title>
    <g id="Symbols" stroke="none" stroke-width="1" fill="none" fill-rule="evenodd">
        <g id="Footer/Desktop" transform="translate(-1261.000000, -40.000000)" fill="#FFFFFF" fill-rule="nonzero">
            <g id="Icon/Social/Spotify" transform="translate(1261.000000, 40.000000)">
                <path d="M12,0 C5.37580645,0 0,5.37580645 0,12 C0,18.6241935 5.37580645,24 12,24 C18.6241935,24 24,18.6241935 24,12 C24,5.37580645 18.6241935,0 12,0 Z M16.8725806,17.6564516 C16.6693548,17.6564516 16.5435484,17.5935484 16.3548387,17.4822581 C13.3354839,15.6629032 9.82258065,15.5854839 6.35322581,16.2967742 C6.16451613,16.3451613 5.91774194,16.4225806 5.77741935,16.4225806 C5.30806452,16.4225806 5.01290323,16.05 5.01290323,15.6580645 C5.01290323,15.1596774 5.30806452,14.9225806 5.67096774,14.8451613 C9.63387097,13.9693548 13.683871,14.0467742 17.1387097,16.1129032 C17.433871,16.3016129 17.6080645,16.4709677 17.6080645,16.9112903 C17.6080645,17.3516129 17.2645161,17.6564516 16.8725806,17.6564516 L16.8725806,17.6564516 Z M18.1741935,14.4822581 C17.9225806,14.4822581 17.7532258,14.3709677 17.5790323,14.2790323 C14.5548387,12.4887097 10.0451613,11.7677419 6.03387097,12.8564516 C5.8016129,12.9193548 5.67580645,12.9822581 5.45806452,12.9822581 C4.94032258,12.9822581 4.51935484,12.5612903 4.51935484,12.0435484 C4.51935484,11.5258065 4.77096774,11.1822581 5.26935484,11.0419355 C6.61451613,10.6645161 7.98870968,10.383871 10.0016129,10.383871 C13.1419355,10.383871 16.1758065,11.1629032 18.566129,12.5854839 C18.9580645,12.8177419 19.1129032,13.1177419 19.1129032,13.5387097 C19.1080645,14.0612903 18.7016129,14.4822581 18.1741935,14.4822581 L18.1741935,14.4822581 Z M19.6741935,10.7951613 C19.4225806,10.7951613 19.2677419,10.7322581 19.05,10.6064516 C15.6048387,8.55 9.44516129,8.05645161 5.45806452,9.16935484 C5.28387097,9.21774194 5.06612903,9.29516129 4.83387097,9.29516129 C4.19516129,9.29516129 3.70645161,8.79677419 3.70645161,8.15322581 C3.70645161,7.49516129 4.11290323,7.12258065 4.5483871,6.99677419 C6.2516129,6.4983871 8.15806452,6.26129032 10.233871,6.26129032 C13.766129,6.26129032 17.4677419,6.99677419 20.1725806,8.57419355 C20.55,8.79193548 20.7967742,9.09193548 20.7967742,9.66774194 C20.7967742,10.3258065 20.2645161,10.7951613 19.6741935,10.7951613 L19.6741935,10.7951613 Z" id="Shape"></path>
            </g>
        </g>
    </g>
</svg>