<?xml version="1.0" encoding="UTF-8"?>
<svg width="23px" height="24px" viewBox="0 0 23 24" version="1.1" xmlns="http://www.w3.org/2000/svg" xmlns:xlink="http://www.w3.org/1999/xlink">
    <title>Icon/Social/Twitch</title>
    <g id="Symbols" stroke="none" stroke-width="1" fill="none" fill-rule="evenodd">
        <g id="Footer/Desktop" transform="translate(-1309.000000, -40.000000)" fill="#FFFFFF" fill-rule="nonzero">
            <g id="Icon/Social/Twitch" transform="translate(1309.000000, 40.000000)">
                <path d="M1.5714838,0 L0,4.05849368 L0,20.6460693 L5.58633776,20.6460693 L5.58633776,23.6437603 L8.72930536,23.6437603 L11.6947632,20.6460693 L16.2369256,20.6460693 L22.345351,14.4712479 L22.345351,0 L1.5714838,0 Z M20.2517796,13.4104453 L16.7590133,16.9411765 L11.1726755,16.9411765 L8.20721772,19.9388675 L8.20721772,16.9411765 L3.49276632,16.9411765 L3.49276632,2.11632765 L20.2517796,2.11632765 L20.2517796,13.4104453 Z M16.7590133,6.17482133 L16.7590133,12.344365 L14.6654418,12.344365 L14.6654418,6.17482133 L16.7590133,6.17482133 Z M11.1726755,6.17482133 L11.1726755,12.344365 L9.07910408,12.344365 L9.07910408,6.17482133 L11.1726755,6.17482133 Z" id="Shape"></path>
            </g>
        </g>
    </g>
</svg>