<?xml version="1.0" encoding="UTF-8"?>
<svg width="24px" height="24px" viewBox="0 0 24 24" version="1.1" xmlns="http://www.w3.org/2000/svg" xmlns:xlink="http://www.w3.org/1999/xlink">
    <title>Icon/Social/Vk</title>
    <g id="Symbols" stroke="none" stroke-width="1" fill="none" fill-rule="evenodd">
        <g id="Footer/Desktop" transform="translate(-1213.000000, -40.000000)" fill="#FFFFFF">
            <g id="Icon/Social/Vk" transform="translate(1213.000000, 40.000000)">
                <path d="M22.7180574,5.17920154e-17 C23.1638168,-3.00926524e-17 23.3254599,0.0464128056 23.4884229,0.133566352 C23.6513858,0.220719898 23.7792801,0.348614185 23.8664336,0.511577148 C23.9535872,0.674540111 24,0.83618323 24,1.2819426 L24,22.7180574 C24,23.1638168 23.9535872,23.3254599 23.8664336,23.4884229 C23.7792801,23.6513858 23.6513858,23.7792801 23.4884229,23.8664336 C23.3254599,23.9535872 23.1638168,24 22.7180574,24 L1.2819426,24 C0.83618323,24 0.674540111,23.9535872 0.511577148,23.8664336 C0.348614185,23.7792801 0.220719898,23.6513858 0.133566352,23.4884229 C0.0464128056,23.3254599 2.00617683e-17,23.1638168 -3.45280103e-17,22.7180574 L3.45280103e-17,1.2819426 C-2.00617683e-17,0.83618323 0.0464128056,0.674540111 0.133566352,0.511577148 C0.220719898,0.348614185 0.348614185,0.220719898 0.511577148,0.133566352 C0.674540111,0.0464128056 0.83618323,3.00926524e-17 1.2819426,-5.17920154e-17 L22.7180574,5.17920154e-17 Z M4.93682613,6 L2.74998594,6 C2.12623526,6 2,6.29625 2,6.62625 C2,7.21125 2.74256034,10.1175 5.45661837,13.9575 C7.26475279,16.57875 9.81173475,18 12.128523,18 C13.5208236,18 13.6916125,17.685 13.6916125,17.14125 C13.6916125,14.63625 13.5653773,14.4 14.263384,14.4 C14.5863977,14.4 15.143318,14.565 16.4427986,15.82875 C17.9279192,17.32875 18.1729641,18 19.0046317,18 L21.1914719,18 C21.8152226,18 22.1308107,17.685 21.9488835,17.0625 C21.5330497,15.75375 18.7224588,13.06125 18.5962235,12.88125 C18.2732098,12.46125 18.3660298,12.27375 18.5962235,11.89875 C18.5999363,11.895 21.2694408,8.1 21.5441881,6.81375 C21.6815617,6.345 21.5441881,6 20.8833094,6 L18.6964692,6 C18.1395489,6 17.8833656,6.29625 17.745992,6.62625 C17.745992,6.62625 16.6321514,9.3675 15.0579235,11.145 C14.5492697,11.65875 14.3153632,11.82375 14.0369031,11.82375 C13.8995294,11.82375 13.6878997,11.65875 13.6878997,11.19 L13.6878997,6.81375 C13.6878997,6.25125 13.531962,6 13.0715746,6 L9.63352027,6 C9.28451691,6 9.07660001,6.2625 9.07660001,6.50625 C9.07660001,7.03875 9.86371397,7.1625 9.94539561,8.6625 L9.94539561,11.9175 C9.94539561,12.63 9.81916035,12.76125 9.54070022,12.76125 C8.79813989,12.76125 6.99371827,10.00875 5.92443138,6.85875 C5.70908888,6.2475 5.49745919,6 4.93682613,6 Z" id="Combined-Shape"></path>
            </g>
        </g>
    </g>
</svg>