<svg width="104" height="24" fill="none" xmlns="http://www.w3.org/2000/svg" class=" Icon_icon__QfSMz Icon_light__6yYsD Icon_solid-no-bg__sq0IZ"><path d="M30.14 1.556h2.678c.614 0 1.086.157 1.406.468.32.31.482.76.482 1.336 0 .576-.163 1.023-.482 1.328-.32.307-.792.461-1.405.461H30.14V1.556Zm5.215-.49c-.592-.56-1.436-.844-2.508-.844h-4.22v9.91h1.513v-3.65h2.706c1.073 0 1.916-.283 2.508-.843.592-.56.892-1.327.892-2.28 0-.953-.3-1.734-.892-2.294m9.252 5.388-.002.013c-.11.825-.44 1.462-.98 1.892-.559.43-1.2.649-1.906.649-.944 0-1.707-.346-2.266-1.029-.56-.683-.843-1.626-.843-2.801 0-1.176.284-2.118.843-2.802.56-.682 1.321-1.029 2.266-1.029.705 0 1.312.184 1.803.546.49.362.83.908 1.014 1.623l.003.01h1.528l-.003-.017c-.222-1.154-.733-2.04-1.519-2.632C43.759.294 42.808 0 41.718 0c-.693 0-1.33.118-1.89.352a4.225 4.225 0 0 0-1.494 1.055 4.634 4.634 0 0 0-.97 1.646c-.216.626-.324 1.34-.324 2.125 0 .785.11 1.507.327 2.132a4.55 4.55 0 0 0 .981 1.64c.43.467.932.822 1.49 1.055a4.854 4.854 0 0 0 1.88.351c1.146 0 2.144-.342 2.966-1.017.832-.675 1.315-1.64 1.435-2.869l.001-.016h-1.514ZM11.743 9.67c-3.524 2.68-9.556 9.31-7.717 11.182a11.737 11.737 0 0 0 7.756 2.913c2.97 0 5.683-1.1 7.756-2.913 1.84-1.872-4.194-8.502-7.717-11.182-.01-.008-.025-.02-.039-.02-.013 0-.03.012-.04.02Zm6.177-7.745C16.115.852 14.16.2 11.782.2S7.45.852 5.645 1.924a.044.044 0 0 0-.02.059c.01.021.034.026.058.02 2.281-.493 5.746 1.477 6.075 1.675.008.004.015.01.025.01.01 0 .017-.005.025-.01.328-.198 3.794-2.168 6.075-1.675.023.005.047.001.058-.02.01-.022 0-.046-.02-.059h-.001ZM3.535 3.581a.216.216 0 0 0-.052.04A11.747 11.747 0 0 0 0 11.983c0 2.684.898 5.157 2.41 7.138.014.019.04.031.062.019.02-.012.021-.038.013-.061-.897-2.777 3.695-9.51 6.066-12.332.008-.01.016-.02.016-.034a.052.052 0 0 0-.02-.04C4.953 3.1 3.733 3.48 3.535 3.582Zm11.482 3.093c-.01.01-.02.022-.02.04 0 .013.008.024.016.034 2.372 2.823 6.964 9.554 6.066 12.331-.008.023-.007.05.013.061.022.013.048 0 .063-.018a11.724 11.724 0 0 0 2.41-7.139c0-3.27-1.333-6.227-3.483-8.361a.217.217 0 0 0-.052-.04c-.198-.102-1.419-.482-5.013 3.093ZM80.222 19.89l1.713-4.538 1.714 4.538h-3.427Zm2.569-6.024h-1.712l-3.87 9.912h1.572l.957-2.569h4.394l.958 2.569h1.572l-3.87-9.912h-.001Zm21.054 7.163c0 .916-.345 1.649-1.025 2.176-.68.527-1.633.795-2.834.795-1.302 0-2.33-.3-3.056-.892-.727-.593-1.1-1.47-1.109-2.607v-.015h1.514v.014c.015.733.246 1.29.69 1.655.444.366 1.113.552 1.989.552.724 0 1.289-.142 1.678-.421.388-.278.584-.687.584-1.217 0-.428-.162-.762-.48-.994-.321-.234-.907-.446-1.744-.63l-.846-.18c-1.015-.204-1.793-.54-2.31-1.003-.52-.463-.783-1.111-.783-1.925 0-.815.32-1.476.95-1.962.628-.486 1.491-.732 2.562-.732 1.293 0 2.28.281 2.931.836.653.556.994 1.33 1.012 2.302v.015h-1.5v-.014c-.046-.63-.257-1.102-.627-1.399-.37-.296-.976-.447-1.802-.447-.642 0-1.139.12-1.477.358-.337.237-.508.578-.508 1.015 0 .437.152.789.453 1.015.302.248.87.462 1.687.636l.861.18c1.126.241 1.948.593 2.442 1.046.497.454.748 1.074.748 1.843m-8.816 0c0 .916-.346 1.649-1.026 2.176-.68.527-1.633.795-2.834.795-1.302 0-2.33-.3-3.056-.892-.727-.593-1.1-1.47-1.109-2.607v-.015h1.514v.014c.014.733.245 1.29.689 1.655.444.366 1.113.552 1.989.552.724 0 1.289-.142 1.678-.421.388-.278.584-.687.584-1.217 0-.428-.162-.762-.48-.994-.32-.234-.907-.446-1.743-.63l-.847-.18c-1.015-.204-1.793-.54-2.31-1.003-.52-.463-.782-1.111-.782-1.925 0-.815.318-1.476.949-1.962.629-.486 1.491-.732 2.563-.732 1.293 0 2.279.281 2.93.836.653.556.994 1.33 1.012 2.302v.015h-1.5v-.014c-.046-.63-.257-1.102-.627-1.399-.37-.296-.976-.447-1.802-.447-.642 0-1.139.12-1.477.358-.337.237-.507.578-.507 1.015 0 .437.152.789.452 1.015.303.248.87.462 1.687.636l.86.18c1.128.241 1.95.593 2.444 1.046.496.454.747 1.074.747 1.843m-22.872-5.83h2.678c.613 0 1.086.158 1.406.47.319.31.481.759.481 1.335 0 .577-.162 1.023-.481 1.33-.32.305-.793.46-1.406.46h-2.678V15.2Zm5.214-.49c-.591-.56-1.436-.843-2.509-.843h-4.22v9.912h1.514v-3.65h2.706c1.073 0 1.917-.284 2.51-.844.591-.56.892-1.328.892-2.28 0-.953-.3-1.734-.893-2.294Zm-19.103-.843v9.912h-1.459v-7.866a54.514 54.514 0 0 1-.75 2.04l-2.238 5.825H52.55l-.003-.01-2.263-5.816c-.27-.717-.516-1.392-.735-2.011v7.837H48.09v-9.912h2.079l2.03 5.27a77.357 77.357 0 0 1 1 2.75c.3-.9.641-1.872 1.013-2.888l1.961-5.131h2.093Zm3.028 1.361V18.1h4.924v1.265h-4.924v3.052h5.566v1.362h-7.08v-9.912h7.08v1.361h-5.566Zm-24.242 3.33v5.22h-1.424V22.48c-.367.5-.819.88-1.346 1.133-.536.257-1.164.386-1.866.386-.703 0-1.36-.12-1.925-.358a4.09 4.09 0 0 1-1.487-1.076 4.711 4.711 0 0 1-.971-1.646c-.215-.622-.323-1.327-.323-2.098 0-.77.11-1.491.327-2.114a4.633 4.633 0 0 1 .982-1.643c.43-.471.94-.83 1.518-1.066.578-.235 1.238-.355 1.963-.355 1.21 0 2.226.319 3.02.947.786.639 1.265 1.496 1.422 2.55l.002.016H35.39l-.002-.012c-.138-.66-.47-1.188-.988-1.573-.517-.385-1.152-.58-1.885-.58-.982 0-1.771.348-2.35 1.035-.586.68-.884 1.62-.884 2.795 0 1.174.298 2.115.885 2.794.596.688 1.395 1.036 2.377 1.036.853 0 1.583-.27 2.17-.801.583-.52.893-1.193.924-2.001h-2.914v-1.293h4.332l-.002.001Zm3.805 1.332 1.714-4.538 1.714 4.538h-3.428Zm2.57-6.024h-1.713l-3.87 9.912h1.572l.958-2.568h4.393l.958 2.568h1.572l-3.87-9.912Z"></path></svg>