<svg width="112" height="24" xmlns="http://www.w3.org/2000/svg"><g fill-rule="nonzero"><path d="M46.578 4.8v14.4H44.09V7.9h-.033L39.61 19.2h-1.658L33.408 7.9h-.034v11.3h-2.289V4.8h3.583l4.114 10.667h.066L43.194 4.8h3.384Zm2.057 1.1c0-.4.133-.733.431-1 .299-.267.63-.4 1.029-.4.431 0 .796.133 1.061.4.266.267.432.6.432 1s-.133.733-.432 1c-.298.267-.63.4-1.061.4-.431 0-.763-.133-1.029-.4-.265-.3-.43-.633-.43-1Zm2.687 2.967V19.2H48.9V8.867h2.422Zm7.332 8.566c.365 0 .763-.066 1.194-.266.432-.167.83-.4 1.195-.667v2.267c-.398.233-.83.4-1.327.5-.498.1-1.029.166-1.626.166-1.526 0-2.754-.466-3.682-1.433-.963-.967-1.427-2.2-1.427-3.667 0-1.666.498-3.033 1.46-4.1.962-1.066 2.322-1.6 4.114-1.6.464 0 .928.067 1.36.167.464.1.83.267 1.094.4v2.333c-.364-.266-.763-.5-1.127-.633-.399-.133-.797-.233-1.195-.233-.962 0-1.725.3-2.322.933s-.863 1.467-.863 2.533c0 1.034.299 1.867.863 2.434.564.566 1.327.866 2.289.866ZM67.91 8.7c.199 0 .365 0 .53.033.167.034.3.067.399.1V11.3c-.133-.1-.299-.2-.564-.267-.266-.066-.53-.133-.896-.133-.597 0-1.095.267-1.493.767-.398.5-.63 1.266-.63 2.333v5.2h-2.422V8.867h2.422V10.5h.033c.232-.567.564-1 .995-1.333.465-.3.996-.467 1.626-.467Zm1.062 5.5c0-1.7.497-3.067 1.426-4.067.962-1 2.29-1.5 3.981-1.5 1.593 0 2.853.467 3.749 1.434.896.966 1.36 2.266 1.36 3.9 0 1.666-.497 3-1.426 4-.962 1-2.256 1.5-3.915 1.5-1.592 0-2.853-.467-3.782-1.4-.929-.967-1.393-2.267-1.393-3.867Zm2.52-.1c0 1.067.233 1.9.73 2.467.498.566 1.195.866 2.09.866.863 0 1.56-.266 2.024-.866.465-.567.697-1.4.697-2.534 0-1.1-.232-1.933-.697-2.533-.464-.567-1.16-.867-1.99-.867-.896 0-1.56.3-2.057.9-.564.634-.796 1.467-.796 2.567Zm11.612-2.5c0 .333.1.633.332.833.232.2.697.434 1.46.734.962.4 1.659.833 2.023 1.3.399.5.598 1.066.598 1.766 0 .967-.365 1.734-1.128 2.334-.73.6-1.759.866-3.02.866-.43 0-.895-.066-1.426-.166a5.72 5.72 0 0 1-1.327-.4v-2.4c.431.3.929.566 1.427.733.497.167.962.267 1.393.267.53 0 .962-.067 1.194-.234.266-.166.398-.4.398-.766 0-.334-.132-.6-.398-.867-.265-.233-.796-.5-1.526-.8-.895-.367-1.526-.8-1.89-1.267-.366-.466-.565-1.066-.565-1.8 0-.933.365-1.7 1.095-2.3.73-.6 1.692-.9 2.853-.9.365 0 .763.034 1.194.134.432.1.83.2 1.128.3v2.366c-.331-.2-.696-.4-1.128-.566a3.496 3.496 0 0 0-1.26-.234c-.465 0-.83.1-1.062.267-.232.233-.365.467-.365.8Zm5.441 2.6c0-1.7.498-3.067 1.427-4.067.962-1 2.289-1.5 3.98-1.5 1.593 0 2.854.467 3.75 1.434.895.966 1.36 2.266 1.36 3.9 0 1.666-.498 3-1.427 4-.962 1-2.256 1.5-3.915 1.5-1.592 0-2.853-.467-3.782-1.4-.895-.967-1.393-2.267-1.393-3.867Zm2.521-.1c0 1.067.233 1.9.73 2.467.498.566 1.195.866 2.09.866.863 0 1.56-.266 2.024-.866.464-.567.697-1.4.697-2.534 0-1.1-.233-1.933-.697-2.533-.465-.567-1.161-.867-1.99-.867-.896 0-1.56.3-2.057.9-.531.634-.797 1.467-.797 2.567Zm16.057-3.233h-3.616V19.2h-2.455v-8.333h-1.725v-2h1.725V7.433c0-1.066.365-1.966 1.062-2.666.696-.7 1.592-1.034 2.687-1.034.299 0 .564.034.796.034.232 0 .431.066.597.133V6a4.053 4.053 0 0 0-.431-.167c-.199-.066-.431-.1-.697-.1-.497 0-.895.167-1.16.467-.266.3-.399.8-.399 1.4v1.233h3.616V6.5l2.422-.733v3.066H112v2h-2.455v4.834c0 .633.133 1.066.332 1.333.232.267.597.4 1.095.4.132 0 .298-.033.497-.1.2-.067.365-.133.498-.233v2c-.166.1-.398.166-.763.233s-.697.1-1.062.1c-1.028 0-1.791-.267-2.289-.8-.498-.533-.763-1.367-.763-2.467l.033-5.266ZM0 0h11.346v11.4H0zM12.54 0h11.346v11.4H12.54zM0 12.6h11.346V24H0zM12.54 12.6h11.346V24H12.54z"></path></g></svg>