<svg width="110" height="24" xmlns="http://www.w3.org/2000/svg" class=" Icon_icon__QfSMz Icon_light__6yYsD Icon_solid-no-bg__sq0IZ"><g fill-rule="nonzero"><path d="M2.306 20.371c-2.418-.693-2.829-2.125-1.723-2.95 1.022-.765 2.76-1.336 2.76-1.336l7.179-2.571v2.93l-5.166 1.862c-.914.334-1.054.797-.311 1.04.742.245 2.084.176 2.997-.154l2.477-.906v2.622c-.156.029-.333.056-.494.083-2.585.423-5.233.21-7.719-.62Zm15.145.305 8.056-2.883c.914-.334 1.054-.795.312-1.039-.743-.243-2.085-.174-2.997.156l-5.368 1.9v-3.027l.31-.106a18.348 18.348 0 0 1 3.731-.794c2.181-.241 4.852.034 6.948.83 2.363.75 2.63 1.856 2.029 2.618-.6.761-2.073 1.303-2.073 1.303l-10.945 3.95-.003-2.908Zm.943-18.765c4.241 1.469 5.679 3.296 5.679 7.415 0 4.013-2.458 5.535-5.58 4.015V5.858c0-.878-.16-1.686-.976-1.915-.626-.203-1.015.384-1.015 1.261v18.73l-5.008-1.604V0c2.13.399 5.233 1.336 6.9 1.907v.004Zm10.767 20.5a.183.183 0 0 1-.06.159.315.315 0 0 1-.183.046h-.385v-.4h.408a.309.309 0 0 1 .133.025c.06.034.095.1.087.17Zm.276.91a.088.088 0 0 1-.04-.062.47.47 0 0 1-.012-.112l-.008-.181a.327.327 0 0 0-.049-.188.303.303 0 0 0-.083-.07.375.375 0 0 0 .106-.103.402.402 0 0 0 .054-.216.352.352 0 0 0-.205-.347.632.632 0 0 0-.263-.048h-.645v1.414h.24v-.58h.38c.05-.003.1.005.148.022.053.03.084.09.079.15l.01.223c.001.037.005.075.01.111a.2.2 0 0 0 .018.054l.01.016h.268v-.082l-.018-.001Zm-1.653-.59c0-.28.109-.548.304-.747a1.023 1.023 0 0 1 1.468 0 1.062 1.062 0 0 1-.734 1.802c-.276 0-.54-.111-.734-.31a1.06 1.06 0 0 1-.304-.745ZM28.822 24c.332 0 .65-.134.882-.373a1.285 1.285 0 0 0 0-1.794 1.228 1.228 0 0 0-.882-.372 1.27 1.27 0 0 0-1.152.792 1.276 1.276 0 0 0 .27 1.374c.232.239.55.373.882.373ZM107.733 19.192h-.213v-1.464h-.488v-.204h1.192v.204h-.488l-.003 1.464Zm1.478-.387.456-1.281H110v1.67h-.222v-1.397l-.505 1.395h-.135l-.503-1.395v1.395h-.211v-1.67h.333l.454 1.283ZM104.894 4.78H84.47v5.552s-.062 2.144 2.582 2.144h12.484c.49-.004.975.095 1.424.291.697.312 1.48.946 1.48 2.226 0 1.15-.554 1.801-1.104 2.167a2.77 2.77 0 0 1-1.527.445H84.47v1.558h17.105s3.885-.158 3.885-4.162c0-2.036-1.186-3.044-2.252-3.539a5.204 5.204 0 0 0-2.198-.477H88.636a1.245 1.245 0 0 1-.593-.142c-.264-.143-.555-.428-.555-.99V6.318h17.406V4.78ZM58.764 17.6v1.558h8.669a4.29 4.29 0 0 0 2.83-1.028 3.597 3.597 0 0 0 1.263-2.823V8.683a2.396 2.396 0 0 1 .888-1.893c.4-.313.893-.48 1.4-.473h7.558V4.78H72.37s-3.885.062-3.885 4.183v6.186a2.69 2.69 0 0 1-.393 1.437 2.083 2.083 0 0 1-1.854 1.017l-7.476-.004ZM38.747 4.78v1.537h15.451a2.91 2.91 0 0 1 1.246.269c.612.288 1.3.881 1.3 2.085 0 1.168-.688 1.753-1.3 2.042a2.965 2.965 0 0 1-1.266.272H42.72a4.35 4.35 0 0 0-1.958.445c-.953.48-2.013 1.61-2.013 3.473v4.23h2.974v-4.21a2.194 2.194 0 0 1 .145-.802c.245-.632.866-1.645 2.317-1.645h11.555c.388.003.775-.05 1.15-.154 1.06-.303 2.83-1.178 2.83-3.651 0-3.844-3.815-3.891-3.815-3.891H38.748Z"></path></g></svg>