<svg width="80" height="24" xmlns="http://www.w3.org/2000/svg" class=" Icon_icon__QfSMz Icon_light__6yYsD Icon_solid-no-bg__sq0IZ"><g fill-rule="nonzero"><path d="M12.018 0C5.683 0 .493 4.86 0 11.038l6.464 2.659a3.404 3.404 0 0 1 2.111-.585l2.874-4.146v-.059c0-2.495 2.04-4.525 4.548-4.525s4.548 2.03 4.548 4.525c0 2.496-2.04 4.526-4.548 4.526-.034 0-.069 0-.103-.003l-4.1 2.911c.003.053.005.107.005.16 0 1.874-1.532 3.397-3.414 3.397a3.414 3.414 0 0 1-3.347-2.727l-4.623-1.9A12.053 12.053 0 0 0 12.018 24c6.66 0 12.06-5.373 12.06-12 0-6.628-5.4-12-12.06-12"></path><path d="M7.557 18.208 6.076 17.6c.262.544.716 1 1.32 1.25a2.57 2.57 0 0 0 3.35-1.374c.262-.628.264-1.32.003-1.95a2.562 2.562 0 0 0-3.271-1.411l1.53.63a1.873 1.873 0 0 1 1.015 2.454 1.889 1.889 0 0 1-2.466 1.01M19.027 8.907a3.026 3.026 0 0 0-3.03-3.015 3.026 3.026 0 0 0-3.03 3.015 3.026 3.026 0 0 0 3.03 3.015 3.026 3.026 0 0 0 3.03-3.015m-5.302-.005a2.27 2.27 0 0 1 2.277-2.265 2.27 2.27 0 0 1 2.277 2.265 2.27 2.27 0 0 1-2.277 2.265 2.271 2.271 0 0 1-2.277-2.265M36.956 8.21l-.808 1.414a4.059 4.059 0 0 0-2.202-.693c-.841 0-1.362.346-1.362.967 0 .755.925.93 2.3 1.421 1.478.52 2.327 1.131 2.327 2.478 0 1.843-1.456 2.878-3.55 2.878-1.02 0-2.25-.262-3.196-.835l.59-1.567c.768.404 1.687.644 2.507.644 1.104 0 1.63-.406 1.63-1.005 0-.686-.801-.892-2.094-1.318-1.473-.49-2.493-1.132-2.493-2.622 0-1.681 1.353-2.647 3.3-2.647 1.356 0 2.446.428 3.051.886M41.37 16.52V9.104H38.61V7.48h7.417v1.624h-2.753v7.416zM53.678 11.136v1.624h-3.641v2.121h4.224v1.639h-6.126V7.48h6.126v1.619h-4.224v2.037zM58.508 14.765l-.602 1.755h-1.994l3.406-9.04h1.915l3.503 9.04h-2.062l-.614-1.755h-3.552Zm1.757-5.128-1.24 3.62h2.506l-1.266-3.62ZM70.94 16.257l-2.446-5.236v5.499h-1.821V7.48h1.817l3.054 6.526 2.944-6.526h1.834v9.04H74.5v-5.546l-2.486 5.283zM80 8.62c0 .777-.585 1.262-1.256 1.262-.674 0-1.26-.485-1.26-1.262 0-.776.586-1.257 1.26-1.257.671 0 1.256.48 1.256 1.257m-2.305 0c0 .65.47 1.059 1.049 1.059.576 0 1.044-.409 1.044-1.059 0-.651-.468-1.053-1.044-1.053-.577 0-1.05.406-1.05 1.053m1.067-.642c.326 0 .435.171.435.356a.37.37 0 0 1-.224.342l.292.545h-.24l-.245-.483h-.254v.483h-.2V7.978h.436Zm-.234.578h.222c.143 0 .228-.09.228-.203 0-.113-.06-.187-.229-.187h-.221v.39Z"></path></g></svg>