<svg width="55" height="24" xmlns="http://www.w3.org/2000/svg"><path d="m41.658 12.68 2.387-3.284c-.796-.17-1.535-.51-2.217-.962-.682-.51-1.023-1.302-.966-2.151-.057-.849.398-1.641 1.08-2.094.91-.566 1.99-.793 3.07-.736 4.205 0 5.284 2.207 6.023 3.113l2.274-3.113c-.398-.623-.853-1.189-1.421-1.642C50.353.623 48.023 0 44.954 0c-2.67 0-4.774.566-6.308 1.755a5.76 5.76 0 0 0-2.273 4.754c0 3.114 1.761 5.095 5.285 6.17Zm11.594-.17c-1.08-.963-2.671-1.642-4.888-2.208l-2.444 3.34c1.25.226 2.444.735 3.524 1.471a2.319 2.319 0 0 1 1.023 2.095 2.88 2.88 0 0 1-1.194 2.49c-1.023.623-2.273.962-3.466.85-3.524 0-5.172-1.133-6.82-4.19l-2.444 3.284c.455.905 1.08 1.641 1.819 2.264C40.067 23.32 42.51 24 45.636 24c2.955 0 5.229-.623 6.877-1.868 1.648-1.245 2.557-3.17 2.444-5.207.227-1.642-.455-3.283-1.705-4.416Zm-20.8 10.98h-1.024V.51h1.023v22.98ZM2.841.397c.34 0 .625.113.852.396.398.736.398 1.585-.057 2.265-.227.283-.625.452-.966.396v-.68c.227 0 .455-.056.568-.226.114-.226.17-.453.17-.68 0-.169-.056-.395-.113-.565-.113-.113-.227-.227-.398-.17-.113 0-.284.057-.34.17-.114.17-.171.396-.228.623l-.057.34c-.057.339-.17.622-.398.905-.17.226-.454.283-.738.283-.285 0-.569-.113-.796-.34-.17-.396-.284-.736-.284-1.132 0-.396.057-.792.34-1.132.228-.283.57-.396.91-.396v.68c-.227.056-.398.112-.511.282-.114.17-.17.396-.114.566 0 .17.057.34.114.51.056.113.227.17.34.17.114 0 .285-.057.342-.17.113-.17.17-.34.227-.566l.057-.34c0-.34.17-.623.34-.906.228-.226.455-.34.74-.283Zm-.74 20.321c-.227.283-.34.623-.397.962l-.057.34c-.057.226-.114.396-.227.566-.057.113-.228.17-.341.17-.114 0-.284-.057-.341-.17-.114-.17-.114-.34-.114-.51 0-.226.057-.452.17-.622.114-.113.285-.227.455-.227v-.679c-.34 0-.682.17-.909.396-.227.34-.341.736-.341 1.132 0 .34.057.736.284 1.02.17.226.455.396.796.339.284 0 .568-.113.739-.283.227-.283.34-.566.397-.906l.057-.34c.057-.226.114-.396.228-.622.056-.113.227-.17.34-.17.171 0 .285.057.398.17.114.17.17.34.114.566 0 .226-.057.453-.17.68-.114.17-.341.226-.569.226v.679c.398 0 .74-.113.966-.396.455-.68.455-1.585.057-2.264-.227-.283-.511-.397-.852-.397a.89.89 0 0 0-.682.34Zm1.82-9.113v.736a1.074 1.074 0 0 1-.455.113h-.398a.647.647 0 0 0-.455.17c-.113.113-.17.283-.113.452v.906h1.477v.736H.17v-1.925.057c0-.226.057-.51.228-.736l-.057.057c0-.057.057-.113.114-.113.17-.227.454-.34.795-.34.398 0 .796.226.91.623.056-.17.17-.283.284-.397.17-.113.34-.113.511-.113l.569-.056c.113-.057.227-.057.397-.17Zm-2.615.849a.517.517 0 0 0-.398.17.439.439 0 0 0-.113.452v.906h1.136v-.962c0-.17-.057-.34-.17-.453-.17-.113-.284-.17-.455-.113ZM.17 10.133h3.751v-.737H.171v.736Zm.626-5.208H.17v2.773h3.751V4.925h-.625v2.037H2.33V5.094h-.625v1.868h-.91V4.925Zm0 11.32H.17v2.774h3.751v-2.774h-.625v2.038H2.33v-1.868h-.625v1.868h-.91v-2.038Zm4.717 7.246h5l3.752-5.151-2.5-3.397-6.252 8.548ZM27.336.509h-5.001l-3.069 4.246 2.5 3.396 5.57-7.642Zm-16.14 0H6.195l16.879 22.982h5.001L11.195.509Z" fill-rule="nonzero"></path></svg>